<svg xmlns="http://www.w3.org/2000/svg" viewBox="0 0 760 390" role="img">
  <rect width="760" height="390" fill="#fffdf8"/>
  <defs>
    <marker id="ah" viewBox="0 0 10 10" refX="9" refY="5" markerWidth="8" markerHeight="8" orient="auto-start-reverse">
      <path d="M0 1.2 L10 5 L0 8.8 Z" fill="#8f3010"/>
    </marker>
  </defs>
  <g fill="none" stroke="#1b3a34" stroke-width="2.4" stroke-linejoin="round" stroke-linecap="round">
    <path d="M188 78c22-22 62-22 84 0"/>
    <path d="M188 78 L128 118 L86 154 L108 176 L156 146 L148 292 L292 292 L284 146 L332 176 L354 154 L312 118 L252 78"/>
    <path d="M206 84c16 14 32 14 48 0"/>
    <path d="M468 78 h156 v28 h-156 z"/>
    <path d="M476 106 h58 l-8 186 h-50 z"/>
    <path d="M558 106 h58 l8 186 h-50 z"/>
  </g>
  <g fill="none" stroke="#8f3010" stroke-width="2" marker-start="url(#ah)" marker-end="url(#ah)">
    <line x1="158" y1="176" x2="282" y2="176"/>
    <line x1="388" y1="72" x2="388" y2="292"/>
    <line x1="476" y1="92" x2="616" y2="92"/>
    <line x1="468" y1="200" x2="624" y2="200"/>
    <line x1="668" y1="78" x2="668" y2="292"/>
  </g>
  <g fill="#8f3010" font-family="Georgia, 'Iowan Old Style', serif" font-size="22">
    <text x="208" y="164">A</text>
    <text x="396" y="188">B</text>
    <text x="532" y="70">C</text>
    <text x="536" y="188">D</text>
    <text x="678" y="188">E</text>
  </g>
  <g fill="#1b3a34" font-family="Georgia, 'Iowan Old Style', serif" font-size="18">
    <text x="196" y="40">Top</text>
    <text x="520" y="40">Bottoms</text>
  </g>
</svg>
